<?xml version="1.0" encoding="iso-8859-1"?>
<!-- Generator: Adobe Illustrator 19.0.0, SVG Export Plug-In . SVG Version: 6.00 Build 0)  -->
<svg version="1.1" id="Capa_1" xmlns="http://www.w3.org/2000/svg" xmlns:xlink="http://www.w3.org/1999/xlink" x="0px" y="0px"
	 viewBox="0 0 489.924 489.924" style="enable-background:new 0 0 489.924 489.924;" xml:space="preserve">
<g>
	<path d="M440.018,160.014c-2.253-5.164-8.244-7.547-13.438-5.284c-5.164,2.253-7.537,8.268-5.284,13.438
		c31.791,73.002,15.95,156.549-40.364,212.858c-36.326,36.326-84.625,56.334-135.994,56.334c-44.846,0-87.351-15.253-121.594-43.297
		l72.039-15.429c5.513-1.182,9.032-6.61,7.846-12.122c-1.186-5.513-6.65-9.037-12.112-7.846L99.584,378.27
		c-5.513,1.181-9.032,6.61-7.846,12.122l19.599,91.539c2.34,9.22,11.057,8.027,12.113,7.846c5.127-0.879,9.031-6.61,7.845-12.122
		l-13.229-61.809c36.477,27.214,80.543,41.931,126.873,41.931c56.822,0,110.245-22.131,150.43-62.315
		C457.663,333.181,475.188,240.766,440.018,160.014z"/>
	<path d="M108.985,108.988c70.354-70.358,182.099-74.693,257.583-13.033l-72.034,15.426c-5.513,1.181-9.031,6.61-7.845,12.122
		c1.027,4.79,5.253,8.069,9.968,8.069c0.556,0.794,93.687-19.828,93.687-19.828c7.884-1.783,8.414-9.475,7.845-12.122L378.58,8.085
		c-1.176-5.508-6.629-9.062-12.112-7.846c-5.512,1.181-9.032,6.61-7.846,12.122l13.247,61.857
		c-83.248-61.934-201.831-55.163-277.32,20.336c-62.285,62.279-79.811,154.7-44.65,235.453c1.674,3.843,6.299,7.987,13.438,5.284
		c4.922-1.863,7.537-8.27,5.284-13.438C36.83,248.85,52.671,165.297,108.985,108.988z"/>
	<path d="M149.032,247.818l-32.4,32.551v15.276h73.036v-17.265h-48.43l25.048-25.521c7.653-7.834,12.896-14.251,15.749-19.243
		c2.852-4.992,4.278-10.245,4.278-15.738c0-9.782-3.375-17.497-10.083-23.151c-6.729-5.654-14.543-8.477-23.462-8.477
		c-8.919,0-16.19,1.778-21.855,5.343c-5.645,3.566-10.827,8.869-15.507,15.889l14.523,8.406
		c5.805-8.959,13.077-13.448,21.854-13.448c4.982,0,9.1,1.507,12.373,4.51c3.254,3.003,4.882,6.648,4.882,10.928
		c0,4.278-1.526,8.506-4.579,12.674C161.406,234.732,156.263,240.487,149.032,247.818z"/>
	<polygon points="266.36,295.646 266.36,268.759 279.195,268.759 279.195,252.408 266.36,252.408 266.36,232.853 249.246,232.853 
		249.246,252.408 223.735,252.408 262.383,188.842 242.677,188.842 203.408,252.86 203.408,268.759 249.246,268.759 
		249.246,295.646 	"/>
	<path d="M372.4,295.646V245.84c0-10.596-2.812-18.691-8.477-24.295c-5.645-5.604-13.057-8.406-22.236-8.406
		c-5.705,0-11.028,1.426-15.97,4.278c-4.942,2.852-8.617,6.779-11.068,11.761v-46.753h-17.115v113.222h17.115v-44.001
		c0-7.543,2.189-13.267,6.568-17.194c4.379-3.918,9.521-5.876,15.427-5.876c12.434,0,18.64,7.482,18.64,22.458v44.613H372.4z"/>
</g>
<g>
</g>
<g>
</g>
<g>
</g>
<g>
</g>
<g>
</g>
<g>
</g>
<g>
</g>
<g>
</g>
<g>
</g>
<g>
</g>
<g>
</g>
<g>
</g>
<g>
</g>
<g>
</g>
<g>
</g>
</svg>
